<?xml version="1.0" standalone="no"?>
<!DOCTYPE svg PUBLIC "-//W3C//DTD SVG 20010904//EN"
 "http://www.w3.org/TR/2001/REC-SVG-20010904/DTD/svg10.dtd">
<svg version="1.0" xmlns="http://www.w3.org/2000/svg"
 width="512.000000pt" height="512.000000pt" viewBox="0 0 512.000000 512.000000"
 preserveAspectRatio="xMidYMid meet">

<g transform="translate(0.000000,512.000000) scale(0.100000,-0.100000)"
fill="#000000" stroke="none">
<path d="M1865 5104 c-236 -53 -438 -238 -505 -461 l-13 -43 -156 0 c-179 0
-246 -13 -330 -63 -102 -61 -173 -167 -194 -291 -39 -227 121 -441 356 -477
40 -6 262 -9 579 -7 568 5 564 4 703 73 238 117 378 345 376 615 -1 114 -18
188 -71 296 -75 154 -224 283 -391 338 -106 36 -249 44 -354 20z m237 -195
c145 -30 271 -130 335 -265 34 -71 38 -89 41 -176 7 -156 -32 -257 -139 -365
-188 -190 -505 -180 -685 20 -174 194 -162 482 27 662 114 109 271 155 421
124z m-772 -536 c0 -87 61 -241 135 -342 l45 -61 -240 0 c-195 0 -248 3 -278
15 -138 58 -172 243 -64 348 55 54 102 66 265 66 l137 1 0 -27z"/>
<path d="M1958 4759 c-20 -19 -41 -76 -102 -278 -73 -240 -76 -254 -60 -272
21 -23 81 -36 97 -20 6 6 18 35 27 64 l16 52 84 0 84 0 12 -48 c17 -66 31 -80
72 -73 42 6 62 22 62 49 0 32 -150 510 -165 526 -7 7 -33 15 -57 18 -37 4 -49
1 -70 -18z m88 -245 c13 -49 24 -95 24 -101 0 -9 -18 -13 -56 -13 -41 0 -55 3
-52 13 3 6 16 53 29 104 13 51 25 90 27 89 2 -2 14 -44 28 -92z"/>
<path d="M3424 4531 c-105 -27 -216 -119 -262 -218 -27 -57 -27 -61 -30 -296
l-3 -237 30 -30 c49 -49 126 -36 156 25 12 26 15 72 15 226 0 176 2 196 21
237 72 148 304 125 348 -35 7 -26 11 -408 11 -1160 0 -1109 0 -1123 21 -1177
25 -67 86 -133 154 -166 44 -22 67 -25 192 -28 160 -5 183 -14 183 -75 0 -28
-40 -77 -305 -377 -340 -385 -352 -395 -453 -386 -29 2 -67 13 -85 23 -51 30
-647 709 -647 737 0 13 9 34 19 47 18 23 27 24 163 29 116 5 152 10 189 27 66
30 124 86 156 151 l28 57 0 577 0 576 -24 26 c-44 47 -112 44 -153 -8 -16 -19
-18 -65 -18 -564 0 -595 0 -596 -59 -626 -23 -12 -62 -16 -158 -16 -113 0
-134 -3 -178 -24 -142 -66 -204 -239 -133 -373 29 -53 603 -705 666 -755 71
-57 141 -81 242 -82 188 -2 206 12 592 448 174 197 325 375 334 395 28 55 31
168 6 223 -27 61 -74 112 -130 140 -41 20 -67 24 -195 28 l-149 5 -29 33 -29
32 0 1114 c0 710 -4 1133 -10 1167 -23 123 -106 229 -220 283 -52 24 -79 30
-145 32 -44 2 -94 -1 -111 -5z"/>
<path d="M972 3503 c-121 -28 -238 -133 -283 -253 -91 -242 54 -505 309 -559
68 -14 967 -15 1042 -1 175 33 315 177 338 348 30 218 -100 411 -313 467 -86
22 -998 21 -1093 -2z m1094 -210 c83 -44 119 -114 112 -214 -5 -73 -43 -133
-108 -169 l-45 -25 -470 -3 c-547 -4 -553 -3 -625 66 -91 88 -94 205 -8 298
68 74 65 73 618 71 479 -2 486 -2 526 -24z"/>
<path d="M3185 3509 c-62 -36 -74 -111 -26 -160 49 -49 126 -35 156 28 20 41
13 82 -19 112 -28 26 -83 36 -111 20z"/>
<path d="M985 2426 c-356 -89 -440 -545 -138 -752 104 -71 129 -74 680 -74
520 0 544 2 645 57 64 35 143 120 173 186 31 68 44 160 33 239 -23 171 -163
315 -338 348 -80 15 -992 12 -1055 -4z m1086 -219 c24 -13 58 -43 74 -66 27
-39 30 -50 30 -120 0 -68 -3 -83 -27 -119 -15 -22 -49 -54 -75 -69 l-48 -28
-500 0 c-497 0 -500 0 -542 22 -123 66 -157 223 -71 327 64 78 41 75 609 76
l506 0 44 -23z"/>
<path d="M1007 1350 c-77 -14 -168 -62 -225 -120 -225 -228 -118 -614 193
-695 41 -10 107 -15 216 -15 l156 0 13 -42 c68 -230 275 -414 520 -464 291
-59 600 94 730 360 53 108 70 182 71 296 2 270 -138 498 -376 615 -141 69
-132 69 -720 71 -291 1 -552 -1 -578 -6z m506 -202 c-5 -7 -26 -33 -46 -58
-54 -68 -107 -188 -125 -285 l-17 -85 -135 0 c-145 0 -185 7 -236 42 -156 107
-102 351 86 389 19 4 136 7 259 8 177 1 221 -2 214 -11z m636 -17 c154 -48
285 -188 321 -344 14 -63 12 -165 -5 -232 -60 -228 -297 -384 -529 -346 -104
17 -186 59 -262 135 -146 146 -182 356 -93 543 55 115 187 224 307 252 68 16
196 12 261 -8z"/>
<path d="M1836 954 c-19 -19 -21 -77 -3 -92 7 -6 56 -13 109 -14 l96 -3 -119
-210 c-65 -115 -119 -217 -119 -226 0 -35 20 -39 210 -39 200 0 210 2 210 51
0 58 -2 59 -131 59 -65 0 -119 2 -119 4 0 2 52 95 115 207 64 112 118 215 122
228 11 44 -14 51 -193 51 -134 0 -165 -3 -178 -16z"/>
</g>
</svg>
